<svg viewBox="0 0 40 40" fill="none" xmlns="http://www.w3.org/2000/svg">
<g clip-path="url(#clip0_474_2834)">
<!-- <path d="M28.8723 2.73438C31.1141 2.73438 33.2219 3.60742 34.8074 5.19258C36.393 6.77773 37.2656 8.88555 37.2656 11.1277V28.8719C37.2656 31.1137 36.3926 33.2215 34.8074 34.807C33.2223 36.3926 31.1145 37.2652 28.8723 37.2652H11.1281C8.88633 37.2652 6.77852 36.3922 5.19297 34.807C3.60742 33.2219 2.73477 31.1141 2.73477 28.8719V11.1277C2.73477 8.88594 3.60781 6.77812 5.19297 5.19258C6.77813 3.60703 8.88594 2.73438 11.1281 2.73438H28.8723ZM28.8723 0H11.1281C4.98203 0 0 4.98203 0 11.1277V28.8719C0 35.0176 4.98203 39.9996 11.1277 39.9996H28.8719C35.0176 39.9996 39.9996 35.0176 39.9996 28.8719V11.1277C40 4.98203 35.018 0 28.8723 0Z" fill="#0369a1"/> -->
<g clip-path="url(#clip1_474_2834)">
<path d="M8.54129 13.8222L19.9161 7.06027L22.3022 8.59857L10.7063 15.179V31.3792L13.4105 32.9404V16.8019L25.1307 10.0159L27.5471 11.5419L15.8629 18.413V34.3565L18.637 35.9578V19.7089L32.7858 11.5419L19.9905 4.06787L5.7627 12.2961V28.525L8.54129 30.1291V13.8222Z" fill="#0369a1"/>
<path d="M34.1721 13.8374L21.3359 21.197L21.2521 35.9873L34.0912 28.6351L34.1717 24.3844L32.4548 22.4867L34.1721 13.8374ZM31.3085 27.1912L23.8594 31.3155V28.5901L31.3085 24.4657V27.1912ZM31.3085 21.1774L23.7502 25.556V22.8305L31.3085 18.4519V21.1774Z" fill="#0369a1"/>
</g>
</g>
<defs>
<clipPath id="clip0_474_2834">
<rect width="40" height="40" fill="white"/>
</clipPath>
<clipPath id="clip1_474_2834">
<rect width="28.4094" height="31.9193" fill="white" transform="translate(5.7627 4.06787)"/>
</clipPath>
</defs>
</svg>
