<svg width="20" height="20" viewBox="0 0 20 20" fill="none" xmlns="http://www.w3.org/2000/svg">
    <path d="M13.1484 6.83994C12.7545 6.80925 12.3312 6.90362 11.6831 7.15056C11.7375 7.12981 11.0646 7.39311 10.876 7.45898C10.4579 7.60494 10.1137 7.68498 9.72787 7.68498C9.34596 7.68498 8.99379 7.60868 8.58987 7.47236C8.46037 7.42868 8.33017 7.38033 8.16906 7.31742C8.09998 7.29043 7.85001 7.19122 7.79537 7.16982C7.25526 6.9583 6.95132 6.87862 6.69908 6.88484C5.73859 6.89708 4.82968 7.45175 4.30209 8.37017C3.22535 10.2396 3.82156 13.619 5.39553 15.8958C6.23354 17.0991 6.69222 17.5292 6.8767 17.5233C7.06196 17.5153 7.19818 17.4761 7.52976 17.3355C7.59575 17.3074 7.59575 17.3074 7.66837 17.2764C8.50646 16.9193 9.09321 16.7617 9.97787 16.7617C10.8287 16.7617 11.397 16.9164 12.2014 17.2632C12.2752 17.2952 12.2752 17.2952 12.3415 17.3237C12.6729 17.4657 12.7925 17.4968 13.0014 17.4918C13.2993 17.4872 13.667 17.1438 14.4826 15.9468C14.706 15.6206 14.9034 15.2777 15.0746 14.9307C14.9645 14.8397 14.855 14.7431 14.748 14.6411C13.6739 13.6173 13.0095 12.2371 12.9913 10.5326C12.9797 9.18217 13.4215 8.01239 14.1659 7.04831C13.8578 6.9285 13.518 6.86504 13.1484 6.83994ZM13.2779 5.17832C13.8679 5.21832 15.5579 5.39832 16.6579 7.00832C16.5679 7.05832 14.6379 8.17831 14.6579 10.5183C14.6879 13.3183 17.1079 14.2483 17.1379 14.2583C17.1179 14.3283 16.7479 15.5883 15.8579 16.8883C15.0879 18.0183 14.2879 19.1383 13.0279 19.1583C11.7879 19.1883 11.3879 18.4283 9.97787 18.4283C8.55787 18.4283 8.11786 19.1383 6.94786 19.1883C5.72786 19.2283 4.80786 17.9683 4.02786 16.8483C2.43786 14.5483 1.22786 10.3683 2.85786 7.53831C3.66786 6.12831 5.10786 5.23832 6.67786 5.21832C7.86786 5.18832 8.99787 6.01832 9.72787 6.01832C10.4479 6.01832 11.7379 5.05832 13.2779 5.17832ZM12.3279 3.65832C11.6779 4.43832 10.6179 5.04832 9.58787 4.96832C9.44787 3.90832 9.96787 2.79832 10.5679 2.10832C11.2379 1.32832 12.3579 0.748313 13.2879 0.708313C13.4079 1.78832 12.9779 2.87832 12.3279 3.65832Z" fill="#525866"/>
</svg>