<svg width="20" height="20" viewBox="0 0 20 20" fill="none" xmlns="http://www.w3.org/2000/svg">
    <path d="M13.148 6.84C12.7541 6.80931 12.3308 6.90368 11.6828 7.15062C11.7372 7.12987 11.0643 7.39317 10.8756 7.45904C10.4575 7.605 10.1133 7.68504 9.72751 7.68504C9.34559 7.68504 8.99342 7.60874 8.58951 7.47242C8.46001 7.42874 8.32981 7.38039 8.1687 7.31748C8.09961 7.29049 7.84965 7.19129 7.79501 7.16989C7.25489 6.95836 6.95096 6.87868 6.69871 6.8849C5.73822 6.89714 4.82931 7.45181 4.30172 8.37023C3.22498 10.2396 3.8212 13.6191 5.39516 15.8959C6.23317 17.0991 6.69186 17.5292 6.87633 17.5233C7.06159 17.5153 7.19781 17.4761 7.5294 17.3356C7.59538 17.3075 7.59538 17.3075 7.66801 17.2765C8.50609 16.9194 9.09284 16.7617 9.97751 16.7617C10.8283 16.7617 11.3966 16.9165 12.201 17.2633C12.2748 17.2952 12.2748 17.2952 12.3411 17.3237C12.6725 17.4657 12.7921 17.4969 13.001 17.4919C13.2989 17.4872 13.6666 17.1439 14.4823 15.9469C14.7056 15.6206 14.903 15.2778 15.0743 14.9307C14.9641 14.8398 14.8547 14.7431 14.7476 14.6411C13.6735 13.6174 13.0092 12.2371 12.9909 10.5326C12.9793 9.18223 13.4211 8.01245 14.1655 7.04837C13.8574 6.92856 13.5177 6.8651 13.148 6.84ZM13.2775 5.17838C13.8675 5.21838 15.5575 5.39838 16.6575 7.00838C16.5675 7.05838 14.6375 8.17837 14.6575 10.5184C14.6875 13.3184 17.1075 14.2484 17.1375 14.2584C17.1175 14.3284 16.7475 15.5884 15.8575 16.8884C15.0875 18.0184 14.2875 19.1384 13.0275 19.1584C11.7875 19.1884 11.3875 18.4284 9.97751 18.4284C8.55751 18.4284 8.11749 19.1384 6.94749 19.1884C5.72749 19.2284 4.80749 17.9684 4.02749 16.8484C2.43749 14.5484 1.22749 10.3684 2.85749 7.53837C3.66749 6.12837 5.10749 5.23838 6.67749 5.21838C7.86749 5.18838 8.99751 6.01838 9.72751 6.01838C10.4475 6.01838 11.7375 5.05838 13.2775 5.17838ZM12.3275 3.65838C11.6775 4.43838 10.6175 5.04838 9.58751 4.96838C9.44751 3.90838 9.96751 2.79838 10.5675 2.10838C11.2375 1.32838 12.3575 0.748374 13.2875 0.708374C13.4075 1.78838 12.9775 2.87838 12.3275 3.65838Z" fill="#0369a1"/>
</svg>