<svg width="20" height="20" viewBox="0 0 20 20" fill="none" xmlns="http://www.w3.org/2000/svg">
    <path d="M5.83333 4.16671C5.83333 2.32576 7.32572 0.833374 9.16667 0.833374C11.0076 0.833374 12.5 2.32576 12.5 4.16671H15C15.4602 4.16671 15.8333 4.53981 15.8333 5.00004V7.50004C17.6742 7.50004 19.1667 8.99246 19.1667 10.8334C19.1667 12.6743 17.6742 14.1667 15.8333 14.1667V16.6667C15.8333 17.127 15.4602 17.5 15 17.5H3.33333C2.8731 17.5 2.5 17.127 2.5 16.6667V5.00004C2.5 4.53981 2.8731 4.16671 3.33333 4.16671H5.83333ZM9.16667 2.50004C8.24619 2.50004 7.5 3.24623 7.5 4.16671C7.5 4.36299 7.53358 4.54964 7.59462 4.72233C7.68477 4.97739 7.64551 5.26033 7.48932 5.4812C7.33312 5.70207 7.07943 5.83337 6.80892 5.83337H4.16667V15.8334H14.1667V13.1911C14.1667 12.9206 14.298 12.667 14.5188 12.5107C14.7397 12.3545 15.0227 12.3153 15.2777 12.4055C15.4504 12.4665 15.6371 12.5 15.8333 12.5C16.7538 12.5 17.5 11.7539 17.5 10.8334C17.5 9.91287 16.7538 9.16671 15.8333 9.16671C15.6371 9.16671 15.4504 9.20029 15.2777 9.26129C15.0227 9.35146 14.7397 9.31221 14.5188 9.15604C14.298 8.99979 14.1667 8.74612 14.1667 8.47562V5.83337H11.5244C11.2539 5.83337 11.0002 5.70207 10.844 5.4812C10.6878 5.26033 10.6486 4.97739 10.7388 4.72233C10.7998 4.54964 10.8333 4.363 10.8333 4.16671C10.8333 3.24623 10.0872 2.50004 9.16667 2.50004Z" fill="#0369a1"/>
</svg>