<svg width="20" height="20" viewBox="0 0 20 20" fill="none" xmlns="http://www.w3.org/2000/svg">
    <path d="M5.83333 4.16666C5.83333 2.32571 7.32572 0.833328 9.16667 0.833328C11.0076 0.833328 12.5 2.32571 12.5 4.16666H15C15.4602 4.16666 15.8333 4.53976 15.8333 4.99999V7.49999C17.6742 7.49999 19.1667 8.99241 19.1667 10.8333C19.1667 12.6742 17.6742 14.1667 15.8333 14.1667V16.6667C15.8333 17.1269 15.4602 17.5 15 17.5H3.33333C2.8731 17.5 2.5 17.1269 2.5 16.6667V4.99999C2.5 4.53976 2.8731 4.16666 3.33333 4.16666H5.83333ZM9.16667 2.49999C8.24619 2.49999 7.5 3.24619 7.5 4.16666C7.5 4.36294 7.53358 4.54959 7.59463 4.72229C7.68477 4.97734 7.64551 5.26029 7.48932 5.48115C7.33312 5.70202 7.07943 5.83333 6.80892 5.83333H4.16667V15.8333H14.1667V13.1911C14.1667 12.9206 14.298 12.6669 14.5188 12.5107C14.7397 12.3545 15.0227 12.3152 15.2777 12.4054C15.4504 12.4664 15.6371 12.5 15.8333 12.5C16.7538 12.5 17.5 11.7538 17.5 10.8333C17.5 9.91283 16.7538 9.16666 15.8333 9.16666C15.6371 9.16666 15.4504 9.20024 15.2777 9.26124C15.0227 9.35141 14.7397 9.31216 14.5188 9.15599C14.298 8.99974 14.1667 8.74608 14.1667 8.47558V5.83333H11.5244C11.2539 5.83333 11.0002 5.70202 10.844 5.48115C10.6878 5.26029 10.6486 4.97734 10.7388 4.72229C10.7998 4.54959 10.8333 4.36295 10.8333 4.16666C10.8333 3.24619 10.0872 2.49999 9.16667 2.49999Z" fill="#525866"/>
</svg>