<svg width="20" height="20" viewBox="0 0 20 20" fill="none" xmlns="http://www.w3.org/2000/svg">
    <path d="M11.7678 8.23211C15.3476 11.8119 17.4581 15.5054 16.4818 16.4817C16.0859 16.8776 15.2432 16.7659 14.1425 16.2545C11.455 18.0375 7.87264 17.906 5.31813 15.8599L5.28596 15.8924L4.10744 14.7139L4.13945 14.6811C2.09385 12.1266 1.96253 8.54465 3.74547 5.85827C3.23396 4.75654 3.12232 3.91394 3.51819 3.51807C4.45799 2.57827 7.91554 4.49878 11.3658 7.83677L11.7678 8.23211ZM10.5893 9.41065C9.01917 7.84053 7.39136 6.53486 6.02984 5.72452L5.87521 5.87509C3.79743 7.95287 3.61476 11.2081 5.32722 13.493L6.86619 11.9551C6.71774 11.3991 6.8616 10.7812 7.2978 10.3451C7.94868 9.69415 9.00392 9.69415 9.65484 10.3451C10.3057 10.9959 10.3057 12.0512 9.65484 12.7021C9.21884 13.1381 8.6015 13.282 8.04573 13.1339L6.50624 14.6722C8.79109 16.3852 12.0468 16.2026 14.1248 14.1246L14.2738 13.9685L14.23 13.8944C13.4168 12.5484 12.1303 10.9517 10.5893 9.41065ZM16.4818 3.51807C17.1327 4.16894 17.1327 5.22422 16.4818 5.87509C16.4378 5.91906 16.392 5.96007 16.3446 5.99809C17.6714 8.09577 17.8556 10.7101 16.8967 12.9521C16.5828 12.3386 16.1956 11.693 15.7416 11.0306C16.0663 9.21623 15.5272 7.27747 14.1248 5.87509C12.7224 4.47271 10.7837 3.93364 8.96892 4.25787C8.30638 3.80397 7.66093 3.41681 7.04776 3.10362C9.28983 2.14436 11.9041 2.32846 14.0033 3.65569C14.0398 3.60786 14.0808 3.56204 14.1248 3.51807C14.7757 2.86719 15.8309 2.86719 16.4818 3.51807Z" fill="#525866"/>
</svg>