<svg width="20" height="20" viewBox="0 0 20 20" fill="none" xmlns="http://www.w3.org/2000/svg">
    <path d="M3.33325 18.3333C3.33325 14.6514 6.31802 11.6667 9.99992 11.6667C13.6818 11.6667 16.6666 14.6514 16.6666 18.3333H14.9999C14.9999 15.5719 12.7613 13.3333 9.99992 13.3333C7.23849 13.3333 4.99992 15.5719 4.99992 18.3333H3.33325ZM9.99992 10.8333C7.23742 10.8333 4.99992 8.59583 4.99992 5.83333C4.99992 3.07083 7.23742 0.833328 9.99992 0.833328C12.7624 0.833328 14.9999 3.07083 14.9999 5.83333C14.9999 8.59583 12.7624 10.8333 9.99992 10.8333ZM9.99992 9.16666C11.8416 9.16666 13.3333 7.67499 13.3333 5.83333C13.3333 3.99166 11.8416 2.49999 9.99992 2.49999C8.15825 2.49999 6.66659 3.99166 6.66659 5.83333C6.66659 7.67499 8.15825 9.16666 9.99992 9.16666Z" fill="#525866"/>
</svg>