<svg width="20" height="20" viewBox="0 0 20 20" fill="none" xmlns="http://www.w3.org/2000/svg">
    <path d="M3.33334 18.3333C3.33334 14.6514 6.31811 11.6667 10 11.6667C13.6819 11.6667 16.6667 14.6514 16.6667 18.3333H15C15 15.5719 12.7614 13.3333 10 13.3333C7.23859 13.3333 5.00001 15.5719 5.00001 18.3333H3.33334ZM10 10.8333C7.23751 10.8333 5.00001 8.59584 5.00001 5.83334C5.00001 3.07084 7.23751 0.833336 10 0.833336C12.7625 0.833336 15 3.07084 15 5.83334C15 8.59584 12.7625 10.8333 10 10.8333ZM10 9.16667C11.8417 9.16667 13.3333 7.675 13.3333 5.83334C13.3333 3.99167 11.8417 2.5 10 2.5C8.15834 2.5 6.66668 3.99167 6.66668 5.83334C6.66668 7.675 8.15834 9.16667 10 9.16667Z" fill="#0369a1"/>
</svg>