<svg width="20" height="20" viewBox="0 0 20 20" fill="none" xmlns="http://www.w3.org/2000/svg">
    <path d="M10.0013 18.3333C5.39893 18.3333 1.66797 14.6023 1.66797 9.99996C1.66797 5.39758 5.39893 1.66663 10.0013 1.66663C14.6036 1.66663 18.3346 5.39758 18.3346 9.99996C18.3346 14.6023 14.6036 18.3333 10.0013 18.3333ZM10.0013 16.6666C13.6832 16.6666 16.668 13.6819 16.668 9.99996C16.668 6.31806 13.6832 3.33329 10.0013 3.33329C6.3194 3.33329 3.33464 6.31806 3.33464 9.99996C3.33464 13.6819 6.3194 16.6666 10.0013 16.6666ZM10.8346 9.99996H14.168V11.6666H9.16797V5.83329H10.8346V9.99996Z" fill="#0369a1"/>
</svg>