<svg width="20" height="20" viewBox="0 0 20 20" fill="none" xmlns="http://www.w3.org/2000/svg">
    <path d="M9.99996 18.3333C5.39758 18.3333 1.66663 14.6023 1.66663 10C1.66663 5.39763 5.39758 1.66667 9.99996 1.66667C14.6023 1.66667 18.3333 5.39763 18.3333 10C18.3333 14.6023 14.6023 18.3333 9.99996 18.3333ZM9.99996 16.6667C13.6819 16.6667 16.6666 13.6819 16.6666 10C16.6666 6.31811 13.6819 3.33334 9.99996 3.33334C6.31806 3.33334 3.33329 6.31811 3.33329 10C3.33329 13.6819 6.31806 16.6667 9.99996 16.6667ZM10.8333 10H14.1666V11.6667H9.16663V5.83334H10.8333V10Z" fill="#525866"/>
</svg>