<svg width="20" height="20" viewBox="0 0 20 20" fill="none" xmlns="http://www.w3.org/2000/svg">
    <path d="M5.91127 4.73337L15.2659 14.088C16.144 12.9588 16.666 11.5409 16.666 9.99996C16.666 6.31806 13.6813 3.33329 9.99935 3.33329C8.45843 3.33329 7.04051 3.85533 5.91127 4.73337ZM14.0874 15.2665L4.73276 5.91188C3.85472 7.04112 3.33268 8.45904 3.33268 9.99996C3.33268 13.6819 6.31745 16.6666 9.99935 16.6666C11.5403 16.6666 12.9582 16.1446 14.0874 15.2665ZM4.10679 4.1074C5.61392 2.60028 7.69839 1.66663 9.99935 1.66663C14.6017 1.66663 18.3327 5.39758 18.3327 9.99996C18.3327 12.3009 17.399 14.3854 15.8919 15.8925C14.3848 17.3996 12.3003 18.3333 9.99935 18.3333C5.39697 18.3333 1.66602 14.6023 1.66602 9.99996C1.66602 7.699 2.59967 5.61453 4.10679 4.1074Z" fill="#0369a1"/>
</svg>