<svg width="20" height="20" viewBox="0 0 20 20" fill="none" xmlns="http://www.w3.org/2000/svg">
    <path d="M5.91188 4.73341L15.2665 14.0881C16.1446 12.9588 16.6666 11.5409 16.6666 10C16.6666 6.31811 13.6819 3.33334 9.99996 3.33334C8.45904 3.33334 7.04112 3.85537 5.91188 4.73341ZM14.088 15.2666L4.73337 5.91192C3.85533 7.04116 3.33329 8.45909 3.33329 10C3.33329 13.6819 6.31806 16.6667 9.99996 16.6667C11.5409 16.6667 12.9588 16.1447 14.088 15.2666ZM4.1074 4.10745C5.61453 2.60032 7.699 1.66667 9.99996 1.66667C14.6023 1.66667 18.3333 5.39763 18.3333 10C18.3333 12.3009 17.3996 14.3854 15.8925 15.8926C14.3854 17.3997 12.3009 18.3333 9.99996 18.3333C5.39758 18.3333 1.66663 14.6023 1.66663 10C1.66663 7.69905 2.60028 5.61457 4.1074 4.10745Z" fill="#525866"/>
</svg>