<svg width="20" height="20" viewBox="0 0 20 20" fill="none" xmlns="http://www.w3.org/2000/svg">
    <path d="M14.6814 4.97346L15.8926 3.76231L17.0711 4.94082L15.8599 6.15197C16.8863 7.43503 17.5 9.06254 17.5 10.8334C17.5 14.9755 14.1422 18.3334 10 18.3334C5.85787 18.3334 2.5 14.9755 2.5 10.8334C2.5 6.69124 5.85787 3.33337 10 3.33337C11.7708 3.33337 13.3983 3.9471 14.6814 4.97346ZM10 16.6667C13.2217 16.6667 15.8333 14.055 15.8333 10.8334C15.8333 7.61172 13.2217 5.00004 10 5.00004C6.77834 5.00004 4.16667 7.61172 4.16667 10.8334C4.16667 14.055 6.77834 16.6667 10 16.6667ZM9.16667 6.66671H10.8333V11.6667H9.16667V6.66671ZM6.66667 0.833374H13.3333V2.50004H6.66667V0.833374Z" fill="#525866"/>
</svg>