<svg width="20" height="20" viewBox="0 0 20 20" fill="none" xmlns="http://www.w3.org/2000/svg">
    <path d="M9.99935 18.3333C5.39697 18.3333 1.66602 14.6023 1.66602 9.99996C1.66602 5.39758 5.39697 1.66663 9.99935 1.66663C14.6017 1.66663 18.3327 5.39758 18.3327 9.99996C18.3327 14.6023 14.6017 18.3333 9.99935 18.3333ZM8.09103 16.3895C7.28887 14.6882 6.79712 12.8118 6.68877 10.8333H3.38426C3.71435 13.4804 5.59634 15.6455 8.09103 16.3895ZM8.35827 10.8333C8.4836 12.8656 9.06418 14.7747 9.99935 16.46C10.9345 14.7747 11.5151 12.8656 11.6404 10.8333H8.35827ZM16.6144 10.8333H13.3099C13.2016 12.8118 12.7098 14.6882 11.9077 16.3895C14.4023 15.6455 16.2844 13.4804 16.6144 10.8333ZM3.38426 9.16663H6.68877C6.79712 7.1881 7.28887 5.31168 8.09103 3.61043C5.59634 4.3544 3.71435 6.51954 3.38426 9.16663ZM8.35827 9.16663H11.6404C11.5151 7.13431 10.9345 5.22517 9.99935 3.53995C9.06418 5.22517 8.4836 7.13431 8.35827 9.16663ZM11.9077 3.61043C12.7098 5.31168 13.2016 7.1881 13.3099 9.16663H16.6144C16.2844 6.51954 14.4023 4.3544 11.9077 3.61043Z" fill="#0369a1"/>
</svg>