<svg width="20" height="20" viewBox="0 0 20 20" fill="none" xmlns="http://www.w3.org/2000/svg">
    <path d="M9.99996 18.3333C5.39758 18.3333 1.66663 14.6023 1.66663 10C1.66663 5.39763 5.39758 1.66667 9.99996 1.66667C14.6023 1.66667 18.3333 5.39763 18.3333 10C18.3333 14.6023 14.6023 18.3333 9.99996 18.3333ZM8.09164 16.3895C7.28948 14.6883 6.79773 12.8118 6.68938 10.8333H3.38487C3.71496 13.4804 5.59695 15.6456 8.09164 16.3895ZM8.35888 10.8333C8.48421 12.8657 9.06479 14.7748 9.99996 16.46C10.9351 14.7748 11.5157 12.8657 11.641 10.8333H8.35888ZM16.615 10.8333H13.3105C13.2022 12.8118 12.7105 14.6883 11.9083 16.3895C14.403 15.6456 16.285 13.4804 16.615 10.8333ZM3.38487 9.16667H6.68938C6.79773 7.18815 7.28948 5.31173 8.09164 3.61047C5.59695 4.35445 3.71496 6.51959 3.38487 9.16667ZM8.35888 9.16667H11.641C11.5157 7.13436 10.9351 5.22521 9.99996 3.54C9.06479 5.22521 8.48421 7.13436 8.35888 9.16667ZM11.9083 3.61047C12.7105 5.31173 13.2022 7.18815 13.3105 9.16667H16.615C16.285 6.51959 14.403 4.35445 11.9083 3.61047Z" fill="#525866"/>
</svg>