<svg width="56" height="56" viewBox="0 0 56 56" fill="none" xmlns="http://www.w3.org/2000/svg">
    <rect width="56" height="56" rx="28" fill="#0369a1"/>
    <path d="M26.3436 27.7708L36.8088 17.3056L38.6944 19.1912L36.8088 21.0768L40.1087 24.3766L38.2231 26.2623L34.9232 22.9624L33.0376 24.848L35.866 27.6765L33.9804 29.5621L31.152 26.7337L28.2292 29.6564C29.9441 32.2449 29.6613 35.7668 27.3807 38.0473C24.7772 40.6509 20.5561 40.6509 17.9526 38.0473C15.3491 35.4439 15.3491 31.2228 17.9526 28.6193C20.2332 26.3387 23.7551 26.0559 26.3436 27.7708ZM25.4951 36.1617C27.0572 34.5996 27.0572 32.0671 25.4951 30.5049C23.933 28.9428 21.4003 28.9428 19.8382 30.5049C18.2762 32.0671 18.2762 34.5996 19.8382 36.1617C21.4003 37.7239 23.933 37.7239 25.4951 36.1617Z" fill="white"/>
</svg>