<svg width="56" height="56" viewBox="0 0 56 56" fill="none" xmlns="http://www.w3.org/2000/svg">
    <rect width="56" height="56" rx="28" fill="#0369a1"/>
    <g clip-path="url(#clip0_17_2709)">
        <!-- <path d="M35.0978 14.1875C36.8912 14.1875 38.5775 14.8859 39.8459 16.1541C41.1144 17.4222 41.8125 19.1084 41.8125 20.9022V35.0975C41.8125 36.8909 41.1141 38.5772 39.8459 39.8456C38.5778 41.1141 36.8916 41.8122 35.0978 41.8122H20.9025C19.1091 41.8122 17.4228 41.1137 16.1544 39.8456C14.8859 38.5775 14.1878 36.8913 14.1878 35.0975V20.9022C14.1878 19.1087 14.8863 17.4225 16.1544 16.1541C17.4225 14.8856 19.1087 14.1875 20.9025 14.1875H35.0978ZM35.0978 12H20.9025C15.9856 12 12 15.9856 12 20.9022V35.0975C12 40.0141 15.9856 43.9997 20.9022 43.9997H35.0975C40.0141 43.9997 43.9997 40.0141 43.9997 35.0975V20.9022C44 15.9856 40.0144 12 35.0978 12Z" fill="white"/> -->
        <g clip-path="url(#clip1_17_2709)">
            <path d="M18.833 23.0576L27.9328 17.6481L29.8417 18.8787L20.565 24.143V37.1032L22.7283 38.3522V25.4414L32.1045 20.0126L34.0376 21.2334L24.6902 26.7302V39.4851L26.9095 40.7661V27.767L38.2286 21.2334L27.9923 15.2542L16.6101 21.8368V34.8199L18.833 36.1032V23.0576Z" fill="white"/>
            <path d="M39.3375 23.0697L29.0685 28.9573L29.0015 40.7896L39.2727 34.9078L39.3372 31.5072L37.9636 29.9891L39.3372 28.6934V23.0693L39.3375 23.0697ZM37.0466 33.7527L31.0873 37.0522V34.8718L37.0466 31.5723V33.7527ZM37.0466 28.9416L31 32.4445V30.2642L37.0466 26.7613V28.9416Z" fill="white"/>
        </g>
    </g>
    <defs>
        <clipPath id="clip0_17_2709">
            <rect width="32" height="32" fill="white" transform="translate(12 12)"/>
        </clipPath>
        <clipPath id="clip1_17_2709">
            <rect width="22.7275" height="25.5355" fill="white" transform="translate(16.6101 15.2542)"/>
        </clipPath>
    </defs>
</svg>