<svg width="20" height="20" viewBox="0 0 20 20" fill="none" xmlns="http://www.w3.org/2000/svg">
    <path d="M7.78549 15.6508L6.17561 15.2194L6.83184 12.7704C5.84091 12.4054 4.93043 11.874 4.13422 11.2104L2.33978 13.0048L1.16127 11.8263L2.95571 10.0319C1.96309 8.8411 1.2667 7.39474 0.979736 5.806L2.6198 5.50781C3.25233 9.00969 6.31601 11.6659 10.0001 11.6659C13.6842 11.6659 16.7479 9.00969 17.3804 5.50781L19.0205 5.806C18.7335 7.39474 18.0371 8.8411 17.0445 10.0319L18.8389 11.8263L17.6604 13.0048L15.866 11.2104C15.0698 11.874 14.1593 12.4054 13.1683 12.7704L13.8246 15.2194L12.2148 15.6508L11.5583 13.2007C11.0518 13.2874 10.5313 13.3326 10.0001 13.3326C9.469 13.3326 8.94834 13.2874 8.442 13.2007L7.78549 15.6508Z" fill="#99A0AE"/>
</svg>