<svg width="20" height="20" viewBox="0 0 20 20" fill="none" xmlns="http://www.w3.org/2000/svg">
<path d="M4.55198 3.69381C6.0128 2.43069 7.91709 1.66663 9.99984 1.66663C14.6022 1.66663 18.3332 5.39758 18.3332 9.99996C18.3332 11.78 17.775 13.4298 16.8242 14.7838L14.1665 9.99996H16.6665C16.6665 6.31806 13.6818 3.33329 9.99984 3.33329C8.20802 3.33329 6.58131 4.04018 5.38336 5.19031L4.55198 3.69381ZM15.4477 16.3061C13.9868 17.5692 12.0826 18.3333 9.99984 18.3333C5.39746 18.3333 1.6665 14.6023 1.6665 9.99996C1.6665 8.21984 2.22466 6.57009 3.1755 5.21616L5.83317 9.99996H3.33317C3.33317 13.6819 6.31794 16.6666 9.99984 16.6666C11.7917 16.6666 13.4183 15.9597 14.6163 14.8096L15.4477 16.3061Z" fill="#525866"/>
</svg>
