<svg width="16" height="16" viewBox="0 0 16 16" fill="none" xmlns="http://www.w3.org/2000/svg">
    <path fill-rule="evenodd" clip-rule="evenodd" d="M8 0.666626L2.52205 1.88395C2.21702 1.95173 2 2.22227 2 2.53474V9.19256C2 10.53 2.66841 11.7789 3.7812 12.5208L8 15.3333L12.2188 12.5208C13.3316 11.7789 14 10.53 14 9.19256V2.53474C14 2.22227 13.783 1.95173 13.4779 1.88395L8 0.666626ZM7.99998 7.05718L7.05717 6.11436L6.11436 5.17155L5.17155 6.11436L7.05718 7.99998L5.17155 9.88558L6.11436 10.8284L7.99998 8.94277L9.88558 10.8284L10.8284 9.88558L8.94278 7.99998L10.8284 6.11436L9.88558 5.17155L7.99998 7.05718Z" fill="#FB3748"/>
</svg>