<svg width="20" height="20" viewBox="0 0 20 20" fill="none" xmlns="http://www.w3.org/2000/svg">
    <path fill-rule="evenodd" clip-rule="evenodd" d="M10 0.833496L3.15256 2.35515C2.77128 2.43988 2.5 2.77805 2.5 3.16864V11.4909C2.5 13.1627 3.33551 14.7238 4.7265 15.6512L10 19.1668L15.2735 15.6512C16.6645 14.7238 17.5 13.1627 17.5 11.4909V3.16864C17.5 2.77805 17.2287 2.43988 16.8474 2.35515L10 0.833496ZM9.99997 8.82168L8.82146 7.64317L7.64294 6.46465L6.46444 7.64316L8.82147 10.0002L6.46444 12.3572L7.64294 13.5357L9.99997 11.1787L12.357 13.5357L13.5355 12.3572L11.1785 10.0002L13.5355 7.64316L12.357 6.46465L9.99997 8.82168Z" fill="#FB3748"/>
</svg>