<svg width="20" height="20" viewBox="0 0 20 20" fill="none" xmlns="http://www.w3.org/2000/svg">
    <path d="M5.22082 3.17232L6.17667 4.53782C4.45737 5.74356 3.33341 7.74045 3.33341 9.99984C3.33341 13.6818 6.31818 16.6665 10.0001 16.6665C13.682 16.6665 16.6667 13.6818 16.6667 9.99984C16.6667 7.74045 15.5427 5.74356 13.8235 4.53782L14.7793 3.17232C16.9285 4.6795 18.3334 7.1756 18.3334 9.99984C18.3334 14.6022 14.6024 18.3332 10.0001 18.3332C5.39771 18.3332 1.66675 14.6022 1.66675 9.99984C1.66675 7.1756 3.0717 4.6795 5.22082 3.17232ZM9.16675 9.99984V1.6665H10.8334V9.99984H9.16675Z" fill="#FB3748"/>
</svg>