<svg width="114" height="40" viewBox="0 0 114 40" fill="none" xmlns="http://www.w3.org/2000/svg">
<g clip-path="url(#clip0_474_2834)">
<!-- <path d="M28.8723 2.73438C31.1141 2.73438 33.2219 3.60742 34.8074 5.19258C36.393 6.77773 37.2656 8.88555 37.2656 11.1277V28.8719C37.2656 31.1137 36.3926 33.2215 34.8074 34.807C33.2223 36.3926 31.1145 37.2652 28.8723 37.2652H11.1281C8.88633 37.2652 6.77852 36.3922 5.19297 34.807C3.60742 33.2219 2.73477 31.1141 2.73477 28.8719V11.1277C2.73477 8.88594 3.60781 6.77812 5.19297 5.19258C6.77813 3.60703 8.88594 2.73438 11.1281 2.73438H28.8723ZM28.8723 0H11.1281C4.98203 0 0 4.98203 0 11.1277V28.8719C0 35.0176 4.98203 39.9996 11.1277 39.9996H28.8719C35.0176 39.9996 39.9996 35.0176 39.9996 28.8719V11.1277C40 4.98203 35.018 0 28.8723 0Z" fill="currentColor"/> -->
<g clip-path="url(#clip1_474_2834)">
<path d="M8.54129 13.8222L19.9161 7.06027L22.3022 8.59857L10.7063 15.179V31.3792L13.4105 32.9404V16.8019L25.1307 10.0159L27.5471 11.5419L15.8629 18.413V34.3565L18.637 35.9578V19.7089L32.7858 11.5419L19.9905 4.06787L5.7627 12.2961V28.525L8.54129 30.1291V13.8222Z" fill="currentColor"/>
<path d="M34.1721 13.8374L21.3359 21.197L21.2521 35.9873L34.0912 28.6351L34.1717 24.3844L32.4548 22.4867L34.1721 13.8374ZM31.3085 27.1912L23.8594 31.3155V28.5901L31.3085 24.4657V27.1912ZM31.3085 21.1774L23.7502 25.556V22.8305L31.3085 18.4519V21.1774Z" fill="currentColor"/>
</g>
</g>
<path d="M55.8 27V12.3H58.54L59.72 19.92L59.82 20.7H59.86L59.96 19.92L61.14 12.3H63.88V27H61.88V17.14H61.76L61.68 17.76L60.4 27H59.28L58 17.76L57.92 17.14H57.8V27H55.8ZM65.4875 27V12.3H67.6875C68.4342 12.3 69.0775 12.4333 69.6175 12.7C70.1642 12.96 70.5842 13.37 70.8775 13.93C71.1775 14.49 71.3275 15.2133 71.3275 16.1C71.3275 16.8067 71.2342 17.4233 71.0475 17.95C70.8675 18.4767 70.5142 18.9067 69.9875 19.24C70.5208 19.5333 70.9042 20 71.1375 20.64C71.3708 21.2733 71.4875 22.0067 71.4875 22.84C71.4875 23.66 71.3542 24.3833 71.0875 25.01C70.8275 25.6367 70.4408 26.1267 69.9275 26.48C69.4208 26.8267 68.7942 27 68.0475 27H65.4875ZM67.6475 24.86C68.3008 24.86 68.7308 24.6667 68.9375 24.28C69.1442 23.8867 69.2475 23.3267 69.2475 22.6C69.2475 21.86 69.1442 21.3 68.9375 20.92C68.7308 20.5333 68.3008 20.34 67.6475 20.34V24.86ZM67.6475 18.36C68.2542 18.36 68.6708 18.1933 68.8975 17.86C69.1308 17.5267 69.2475 17.0333 69.2475 16.38C69.2475 15.72 69.1275 15.2333 68.8875 14.92C68.6542 14.6 68.2408 14.44 67.6475 14.44V18.36ZM78.4586 27.16C77.8653 27.16 77.3719 27.0633 76.9786 26.87C76.5853 26.67 76.2753 26.3833 76.0486 26.01C75.8219 25.6367 75.6586 25.1867 75.5586 24.66C75.4653 24.1333 75.4186 23.54 75.4186 22.88L77.5386 22.68C77.5386 23 77.5486 23.31 77.5686 23.61C77.5953 23.9033 77.6386 24.17 77.6986 24.41C77.7653 24.6433 77.8586 24.83 77.9786 24.97C78.1053 25.11 78.2653 25.18 78.4586 25.18C78.7786 25.18 79.0053 25.0333 79.1386 24.74C79.2719 24.44 79.3386 24.08 79.3386 23.66C79.3386 23.24 79.2286 22.8033 79.0086 22.35C78.7886 21.8967 78.5253 21.4667 78.2186 21.06C77.6986 20.3667 77.2419 19.7233 76.8486 19.13C76.4619 18.5367 76.1586 17.9533 75.9386 17.38C75.7253 16.8067 75.6186 16.2067 75.6186 15.58C75.6186 15.0867 75.6819 14.6333 75.8086 14.22C75.9353 13.8 76.1186 13.4367 76.3586 13.13C76.6053 12.8167 76.9019 12.5733 77.2486 12.4C77.5953 12.2267 77.9919 12.14 78.4386 12.14C78.9919 12.14 79.4586 12.2333 79.8386 12.42C80.2253 12.6067 80.5353 12.8733 80.7686 13.22C81.0086 13.5667 81.1819 13.98 81.2886 14.46C81.4019 14.9333 81.4586 15.46 81.4586 16.04L79.3386 16.24C79.3386 15.9933 79.3253 15.7467 79.2986 15.5C79.2786 15.2467 79.2386 15.0167 79.1786 14.81C79.1186 14.6033 79.0319 14.4367 78.9186 14.31C78.8053 14.1833 78.6586 14.12 78.4786 14.12C78.1986 14.12 78.0053 14.24 77.8986 14.48C77.7919 14.7133 77.7386 15.0467 77.7386 15.48C77.7386 16.04 77.8886 16.58 78.1886 17.1C78.4886 17.62 78.8919 18.2267 79.3986 18.92C80.0053 19.74 80.4986 20.4933 80.8786 21.18C81.2653 21.8667 81.4586 22.6267 81.4586 23.46C81.4586 23.9867 81.4019 24.4767 81.2886 24.93C81.1753 25.3767 80.9953 25.7667 80.7486 26.1C80.5086 26.4333 80.1986 26.6933 79.8186 26.88C79.4453 27.0667 78.9919 27.16 78.4586 27.16ZM82.6164 27V12.3H85.3564L86.5364 19.92L86.6364 20.7H86.6764L86.7764 19.92L87.9564 12.3H90.6964V27H88.6964V17.14H88.5764L88.4964 17.76L87.2164 27H86.0964L84.8164 17.76L84.7364 17.14H84.6164V27H82.6164ZM91.8539 27L94.0739 12.3H96.7139L98.9339 27H96.8339L96.4339 24H94.3539L93.9539 27H91.8539ZM94.6539 21.72H96.1339L95.5139 16.78L95.4539 16H95.3339L95.2739 16.78L94.6539 21.72ZM100.077 27V12.3H102.237C103.531 12.3 104.484 12.66 105.097 13.38C105.711 14.0933 106.017 15.1467 106.017 16.54C106.017 17.3667 105.871 18.0833 105.577 18.69C105.291 19.29 104.941 19.73 104.527 20.01L105.997 27H103.837L102.617 20.8H102.237V27H100.077ZM102.237 18.8C102.637 18.8 102.954 18.7133 103.187 18.54C103.421 18.36 103.587 18.1067 103.687 17.78C103.787 17.4533 103.837 17.0667 103.837 16.62C103.837 15.92 103.721 15.3833 103.487 15.01C103.261 14.63 102.844 14.44 102.237 14.44V18.8ZM108.666 27V14.52H106.626V12.3H112.866V14.52H110.826V27H108.666Z" fill="#0E121B"/>
<defs>
<clipPath id="clip0_474_2834">
<rect width="40" height="40" fill="white"/>
</clipPath>
<clipPath id="clip1_474_2834">
<rect width="28.4094" height="31.9193" fill="white" transform="translate(5.7627 4.06787)"/>
</clipPath>
</defs>
</svg>
