<svg width="20" height="20" viewBox="0 0 20 20" fill="none" xmlns="http://www.w3.org/2000/svg">
    <path d="M9.72775 6.01838C8.99775 6.01838 7.86773 5.18838 6.67773 5.21838C5.10773 5.23838 3.66773 6.12837 2.85773 7.53837C1.22773 10.3684 2.43773 14.5484 4.02773 16.8484C4.80773 17.9684 5.72773 19.2284 6.94773 19.1884C8.11773 19.1384 8.55775 18.4284 9.97775 18.4284C11.3878 18.4284 11.7878 19.1884 13.0278 19.1584C14.2878 19.1384 15.0877 18.0184 15.8577 16.8884C16.7478 15.5884 17.1177 14.3284 17.1377 14.2584C17.1077 14.2484 14.6877 13.3184 14.6577 10.5184C14.6377 8.17837 16.5678 7.05838 16.6578 7.00838C15.5578 5.39838 13.8678 5.21838 13.2778 5.17838C11.7378 5.05838 10.4478 6.01838 9.72775 6.01838ZM12.3278 3.65838C12.9777 2.87838 13.4078 1.78838 13.2878 0.708374C12.3577 0.748374 11.2378 1.32838 10.5677 2.10838C9.96775 2.79838 9.44775 3.90838 9.58775 4.96838C10.6178 5.04838 11.6777 4.43838 12.3278 3.65838Z" fill="#525866"/>
</svg>