<svg width="20" height="20" viewBox="0 0 20 20" fill="none" xmlns="http://www.w3.org/2000/svg">
    <g clip-path="url(#clip0_1007_13293)">
        <path d="M8.84631 14.8297C8.56514 15.4735 7.67411 15.4735 7.39298 14.8297L6.6616 13.1545C6.01074 11.6639 4.83922 10.4772 3.37789 9.82854L1.36479 8.93496C0.724756 8.65087 0.724757 7.71977 1.36479 7.43567L3.31502 6.56999C4.81392 5.90464 6.00645 4.67405 6.6462 3.13247L7.38706 1.34732C7.66197 0.684847 8.57731 0.684846 8.85223 1.34732L9.59306 3.13249C10.2328 4.67405 11.4253 5.90464 12.9242 6.56999L14.8745 7.43567C15.5145 7.71977 15.5145 8.65087 14.8745 8.93496L12.8614 9.82854C11.4001 10.4772 10.2286 11.6639 9.57764 13.1545L8.84631 14.8297ZM3.78394 8.18532C5.68881 9.03087 7.23766 10.4207 8.11963 12.333C9.00164 10.4207 10.5505 9.03087 12.4553 8.18532C10.5277 7.32968 8.97398 5.8721 8.11963 3.92577C7.2653 5.87211 5.71153 7.32968 3.78394 8.18532ZM16.1688 18.9083L16.3745 18.4369C16.7411 17.5964 17.4016 16.9271 18.2256 16.561L18.8592 16.2795C19.202 16.1272 19.202 15.6291 18.8592 15.4769L18.2611 15.211C17.4158 14.8355 16.7436 14.1415 16.3831 13.2725L16.172 12.763C16.0247 12.408 15.5339 12.408 15.3866 12.763L15.1755 13.2725C14.8151 14.1415 14.1429 14.8355 13.2976 15.211L12.6994 15.4769C12.3567 15.6291 12.3567 16.1272 12.6994 16.2795L13.3331 16.561C14.1571 16.9271 14.8175 17.5964 15.1841 18.4369L15.3899 18.9083C15.5404 19.2534 16.0182 19.2534 16.1688 18.9083ZM15.3131 15.8725L15.7818 15.407L16.2408 15.8725L15.7818 16.3249L15.3131 15.8725Z" fill="#0369a1"/>
    </g>
    <defs>
        <clipPath id="clip0_1007_13293">
            <rect width="20" height="20" fill="white"/>
        </clipPath>
    </defs>
</svg>