<svg width="20" height="20" viewBox="0 0 20 20" fill="none" xmlns="http://www.w3.org/2000/svg">
<path d="M15.8333 10.8332H4.16667V16.6665H15.8333V10.8332ZM15.8333 9.1665C15.8333 5.94485 13.2217 3.33317 10 3.33317C6.77834 3.33317 4.16667 5.94485 4.16667 9.1665H15.8333ZM5.31859 3.30659C6.60166 2.28023 8.22916 1.6665 10 1.6665C11.7708 1.6665 13.3983 2.28023 14.6814 3.30659L15.8926 2.09544L17.0711 3.27395L15.8599 4.4851C16.8863 5.76816 17.5 7.39566 17.5 9.1665V17.4998C17.5 17.9601 17.1269 18.3332 16.6667 18.3332H3.33333C2.8731 18.3332 2.5 17.9601 2.5 17.4998V9.1665C2.5 7.39566 3.11373 5.76816 4.14008 4.4851L2.92893 3.27395L4.10744 2.09544L5.31859 3.30659ZM7.5 7.49984C7.03977 7.49984 6.66667 7.12674 6.66667 6.6665C6.66667 6.20627 7.03977 5.83317 7.5 5.83317C7.96023 5.83317 8.33333 6.20627 8.33333 6.6665C8.33333 7.12674 7.96023 7.49984 7.5 7.49984ZM12.5 7.49984C12.0397 7.49984 11.6667 7.12674 11.6667 6.6665C11.6667 6.20627 12.0397 5.83317 12.5 5.83317C12.9602 5.83317 13.3333 6.20627 13.3333 6.6665C13.3333 7.12674 12.9602 7.49984 12.5 7.49984Z" fill="#0369a1"/>
</svg>
