<svg width="20" height="20" viewBox="0 0 20 20" fill="none" xmlns="http://www.w3.org/2000/svg">
<path d="M5.31859 3.30671C6.60166 2.28035 8.22916 1.66663 10 1.66663C11.7708 1.66663 13.3983 2.28035 14.6814 3.30671L15.8926 2.09556L17.0711 3.27407L15.8599 4.48522C16.8863 5.76828 17.5 7.39578 17.5 9.16663V9.99996H2.5V9.16663C2.5 7.39578 3.11373 5.76828 4.14008 4.48522L2.92893 3.27407L4.10744 2.09556L5.31859 3.30671ZM2.5 11.6666H17.5V17.5C17.5 17.9602 17.1269 18.3333 16.6667 18.3333H3.33333C2.8731 18.3333 2.5 17.9602 2.5 17.5V11.6666ZM7.5 7.49996C7.96023 7.49996 8.33333 7.12686 8.33333 6.66663C8.33333 6.20639 7.96023 5.83329 7.5 5.83329C7.03977 5.83329 6.66667 6.20639 6.66667 6.66663C6.66667 7.12686 7.03977 7.49996 7.5 7.49996ZM12.5 7.49996C12.9602 7.49996 13.3333 7.12686 13.3333 6.66663C13.3333 6.20639 12.9602 5.83329 12.5 5.83329C12.0398 5.83329 11.6667 6.20639 11.6667 6.66663C11.6667 7.12686 12.0398 7.49996 12.5 7.49996Z" fill="#525866"/>
</svg>
