<svg width="20" height="20" viewBox="0 0 20 20" fill="none" xmlns="http://www.w3.org/2000/svg">
<path d="M10.0003 1.66663C14.6027 1.66663 18.3337 5.39758 18.3337 9.99996C18.3337 14.6023 14.6027 18.3333 10.0003 18.3333C5.39795 18.3333 1.66699 14.6023 1.66699 9.99996C1.66699 5.39758 5.39795 1.66663 10.0003 1.66663ZM10.0003 3.33329C6.31843 3.33329 3.33366 6.31806 3.33366 9.99996C3.33366 13.6819 6.31843 16.6666 10.0003 16.6666C13.6822 16.6666 16.667 13.6819 16.667 9.99996C16.667 6.31806 13.6822 3.33329 10.0003 3.33329ZM7.35248 12.7855L6.69388 13.928C6.5057 14.2574 6.08568 14.3682 5.75638 14.18C5.42708 13.9919 5.31618 13.5719 5.50436 13.2425L5.99495 12.3958C6.54603 12.2245 6.99629 12.3555 7.35248 12.7855ZM11.0084 7.2177L13.0279 10.7123H14.8122C15.1918 10.7123 15.4977 11.0181 15.4977 11.3978C15.4977 11.7775 15.1918 12.0833 14.8122 12.0833H13.8209L14.4896 13.2425C14.6777 13.5719 14.5668 13.9885 14.2376 14.18C13.9082 14.3682 13.4916 14.2574 13.3001 13.928L10.7665 9.53963C10.1918 8.54838 10.6018 7.55373 11.0084 7.2177ZM11.2402 4.68074C11.5696 4.86891 11.6804 5.28893 11.4922 5.61824L8.55208 10.709H10.6791C11.3679 10.709 11.7543 11.5188 11.4553 12.08H5.2221C4.84239 12.08 4.53662 11.7741 4.53662 11.3945C4.53662 11.0147 4.84239 10.709 5.2221 10.709H6.96941L9.20733 6.83128L8.50841 5.61824C8.32022 5.28893 8.43108 4.87227 8.76041 4.68074C9.08974 4.49257 9.50641 4.60345 9.69791 4.93275L9.99699 5.46031L10.3027 4.93275C10.4909 4.60345 10.9109 4.49257 11.2402 4.68074Z" fill="#525866"/>
</svg>
