<svg width="10" height="9" viewBox="0 0 10 9" fill="none" xmlns="http://www.w3.org/2000/svg">
    <path d="M0.928977 8.07955C0.683712 8.07955 0.473248 7.99171 0.297585 7.81605C0.121922 7.64039 0.034091 7.42992 0.034091 7.18466C0.034091 6.93939 0.121922 6.72893 0.297585 6.55327C0.473248 6.3776 0.683712 6.28977 0.928977 6.28977C1.17424 6.28977 1.38471 6.3776 1.56037 6.55327C1.73603 6.72893 1.82386 6.93939 1.82386 7.18466C1.82386 7.34706 1.78243 7.49621 1.69957 7.6321C1.62003 7.76799 1.51231 7.87737 1.37642 7.96023C1.24384 8.03977 1.0947 8.07955 0.928977 8.07955ZM0.928977 2.41193C0.683712 2.41193 0.473248 2.3241 0.297585 2.14844C0.121922 1.97277 0.034091 1.76231 0.034091 1.51705C0.034091 1.27178 0.121922 1.06132 0.297585 0.885653C0.473248 0.709991 0.683712 0.622159 0.928977 0.622159C1.17424 0.622159 1.38471 0.709991 1.56037 0.885653C1.73603 1.06132 1.82386 1.27178 1.82386 1.51705C1.82386 1.67945 1.78243 1.8286 1.69957 1.96449C1.62003 2.10038 1.51231 2.20975 1.37642 2.29261C1.24384 2.37216 1.0947 2.41193 0.928977 2.41193ZM4.70045 8.07955C4.45518 8.07955 4.24472 7.99171 4.06905 7.81605C3.89339 7.64039 3.80556 7.42992 3.80556 7.18466C3.80556 6.93939 3.89339 6.72893 4.06905 6.55327C4.24472 6.3776 4.45518 6.28977 4.70045 6.28977C4.94571 6.28977 5.15618 6.3776 5.33184 6.55327C5.5075 6.72893 5.59533 6.93939 5.59533 7.18466C5.59533 7.34706 5.5539 7.49621 5.47104 7.6321C5.3915 7.76799 5.28378 7.87737 5.14789 7.96023C5.01531 8.03977 4.86617 8.07955 4.70045 8.07955ZM4.70045 2.41193C4.45518 2.41193 4.24472 2.3241 4.06905 2.14844C3.89339 1.97277 3.80556 1.76231 3.80556 1.51705C3.80556 1.27178 3.89339 1.06132 4.06905 0.885653C4.24472 0.709991 4.45518 0.622159 4.70045 0.622159C4.94571 0.622159 5.15618 0.709991 5.33184 0.885653C5.5075 1.06132 5.59533 1.27178 5.59533 1.51705C5.59533 1.67945 5.5539 1.8286 5.47104 1.96449C5.3915 2.10038 5.28378 2.20975 5.14789 2.29261C5.01531 2.37216 4.86617 2.41193 4.70045 2.41193ZM8.47191 8.07955C8.22665 8.07955 8.01619 7.99171 7.84052 7.81605C7.66486 7.64039 7.57703 7.42992 7.57703 7.18466C7.57703 6.93939 7.66486 6.72893 7.84052 6.55327C8.01619 6.3776 8.22665 6.28977 8.47191 6.28977C8.71718 6.28977 8.92764 6.3776 9.10331 6.55327C9.27897 6.72893 9.3668 6.93939 9.3668 7.18466C9.3668 7.34706 9.32537 7.49621 9.24251 7.6321C9.16297 7.76799 9.05525 7.87737 8.91936 7.96023C8.78678 8.03977 8.63763 8.07955 8.47191 8.07955ZM8.47191 2.41193C8.22665 2.41193 8.01619 2.3241 7.84052 2.14844C7.66486 1.97277 7.57703 1.76231 7.57703 1.51705C7.57703 1.27178 7.66486 1.06132 7.84052 0.885653C8.01619 0.709991 8.22665 0.622159 8.47191 0.622159C8.71718 0.622159 8.92764 0.709991 9.10331 0.885653C9.27897 1.06132 9.3668 1.27178 9.3668 1.51705C9.3668 1.67945 9.32537 1.8286 9.24251 1.96449C9.16297 2.10038 9.05525 2.20975 8.91936 2.29261C8.78678 2.37216 8.63763 2.41193 8.47191 2.41193Z" fill="#99A0AE"/>
</svg>