<svg width="20" height="20" viewBox="0 0 20 20" fill="none" xmlns="http://www.w3.org/2000/svg">
    <path fill-rule="evenodd" clip-rule="evenodd" d="M10 0.833374L3.15256 2.35502C2.77128 2.43976 2.5 2.77793 2.5 3.16852V11.4908C2.5 13.1625 3.33551 14.7237 4.7265 15.651L10 19.1667L15.2735 15.651C16.6645 14.7237 17.5 13.1625 17.5 11.4908V3.16852C17.5 2.77793 17.2287 2.43976 16.8474 2.35502L10 0.833374ZM9.99997 8.82156L8.82146 7.64304L7.64294 6.46453L6.46444 7.64304L8.82147 10.0001L6.46444 12.3571L7.64294 13.5356L9.99997 11.1786L12.357 13.5356L13.5355 12.3571L11.1785 10.0001L13.5355 7.64304L12.357 6.46453L9.99997 8.82156Z" fill="white"/>
</svg>