<svg width="20" height="20" viewBox="0 0 20 20" fill="none" xmlns="http://www.w3.org/2000/svg">
<path d="M15.8327 18.3333H4.16602C2.78531 18.3333 1.66602 17.214 1.66602 15.8333V2.49996C1.66602 2.03973 2.03912 1.66663 2.49935 1.66663H14.166C14.6263 1.66663 14.9993 2.03973 14.9993 2.49996V12.5H18.3327V15.8333C18.3327 17.214 17.2134 18.3333 15.8327 18.3333ZM14.9993 14.1666V15.8333C14.9993 16.2935 15.3724 16.6666 15.8327 16.6666C16.2929 16.6666 16.666 16.2935 16.666 15.8333V14.1666H14.9993ZM13.3327 16.6666V3.33329H3.33268V15.8333C3.33268 16.2935 3.70578 16.6666 4.16602 16.6666H13.3327ZM4.99935 5.83329H11.666V7.49996H4.99935V5.83329ZM4.99935 9.16663H11.666V10.8333H4.99935V9.16663ZM4.99935 12.5H9.16602V14.1666H4.99935V12.5Z" fill="#525866"/>
</svg>
