<svg width="18" height="18" viewBox="0 0 18 18" fill="none" xmlns="http://www.w3.org/2000/svg">
    <path d="M8.16663 0.666626C12.3066 0.666626 15.6666 4.02663 15.6666 8.16663C15.6666 12.3066 12.3066 15.6666 8.16663 15.6666C4.02663 15.6666 0.666626 12.3066 0.666626 8.16663C0.666626 4.02663 4.02663 0.666626 8.16663 0.666626ZM8.16663 14C11.3895 14 14 11.3895 14 8.16663C14 4.94371 11.3895 2.33329 8.16663 2.33329C4.94371 2.33329 2.33329 4.94371 2.33329 8.16663C2.33329 11.3895 4.94371 14 8.16663 14ZM15.2377 14.0592L17.5947 16.4162L16.4162 17.5947L14.0592 15.2377L15.2377 14.0592Z" fill="#99A0AE"/>
</svg>