<svg width="21" height="20" viewBox="0 0 21 20" fill="none" xmlns="http://www.w3.org/2000/svg">
<path d="M10.3333 3.33329C6.65143 3.33329 3.66667 6.31806 3.66667 9.99996H6.16667C7.08714 9.99996 7.83333 10.7461 7.83333 11.6666V15.8333C7.83333 16.7538 7.08714 17.5 6.16667 17.5H3.66667C2.74619 17.5 2 16.7538 2 15.8333V9.99996C2 5.39758 5.73096 1.66663 10.3333 1.66663C14.9357 1.66663 18.6667 5.39758 18.6667 9.99996V15.8333C18.6667 16.7538 17.9205 17.5 17 17.5H14.5C13.5795 17.5 12.8333 16.7538 12.8333 15.8333V11.6666C12.8333 10.7461 13.5795 9.99996 14.5 9.99996H17C17 6.31806 14.0153 3.33329 10.3333 3.33329ZM3.66667 11.6666V15.8333H6.16667V11.6666H3.66667ZM14.5 11.6666V15.8333H17V11.6666H14.5Z" fill="#525866"/>
</svg>
