<svg width="20" height="20" viewBox="0 0 20 20" fill="none" xmlns="http://www.w3.org/2000/svg">
    <path d="M13.3333 6.66663V8.33329H10.8333V12.0833C10.8333 13.2339 9.90058 14.1666 8.75 14.1666C7.59941 14.1666 6.66667 13.2339 6.66667 12.0833C6.66667 10.9327 7.59941 9.99996 8.75 9.99996C8.89267 9.99996 9.032 10.0143 9.16667 10.0416V6.66663H12.5V3.33329H4.16667V16.6666H15.8333V6.66663H13.3333ZM2.5 2.49313C2.5 2.03667 2.87291 1.66663 3.33208 1.66663H13.3333L17.4998 5.83329L17.5 17.4937C17.5 17.9574 17.1292 18.3333 16.6722 18.3333H3.32783C2.87063 18.3333 2.5 17.9539 2.5 17.5068V2.49313Z" fill="#0369a1"/>
</svg>