<svg width="48" height="16" viewBox="0 0 48 16" fill="none" xmlns="http://www.w3.org/2000/svg">
<path d="M0.5 8C0.5 3.85786 3.85786 0.5 8 0.5H40C44.1421 0.5 47.5 3.85786 47.5 8C47.5 12.1421 44.1421 15.5 40 15.5H8C3.85787 15.5 0.5 12.1421 0.5 8Z" stroke="#335CFF"/>
<path d="M9.33797 4H10.8028L13.3497 10.2187H13.4434L15.9903 4H17.4552V12H16.3067V6.21094H16.2325L13.8731 11.9883H12.92L10.5606 6.20703H10.4864V12H9.33797V4ZM19.43 12V4H24.4457V5.03906H20.6371V7.47656H24.1839V8.51172H20.6371V10.9609H24.4925V12H19.43ZM25.8834 5.03906V4H32.0748V5.03906H29.5788V12H28.3756V5.03906H25.8834ZM33.3935 12H32.1122L34.9911 4H36.3857L39.2646 12H37.9833L35.7216 5.45312H35.6591L33.3935 12ZM33.6083 8.86719H37.7646V9.88281H33.6083V8.86719Z" fill="#335CFF"/>
</svg>
