<svg width="18" height="18" viewBox="0 0 18 18" fill="none" xmlns="http://www.w3.org/2000/svg">
    <path d="M2.10433 3.90035L5.25379 5.99999L8.39348 1.60441C8.63423 1.26735 9.10268 1.18929 9.43973 1.43004C9.50708 1.47814 9.56595 1.53706 9.6141 1.60441L12.7538 5.99999L15.9032 3.90035C16.2479 3.67059 16.7135 3.76371 16.9433 4.10836C17.0421 4.25658 17.0849 4.43511 17.0642 4.61202L15.8318 15.0876C15.7873 15.4653 15.4672 15.75 15.0869 15.75H2.92073C2.54042 15.75 2.2203 15.4653 2.17586 15.0876L0.943442 4.61202C0.895044 4.20064 1.1893 3.82792 1.60067 3.77952C1.77758 3.75871 1.95612 3.80154 2.10433 3.90035ZM9.00383 11.25C9.8322 11.25 10.5038 10.5785 10.5038 9.75C10.5038 8.92155 9.8322 8.25 9.00383 8.25C8.17538 8.25 7.50383 8.92155 7.50383 9.75C7.50383 10.5785 8.17538 11.25 9.00383 11.25Z" fill="#FF8447"/>
</svg>