<svg width="20" height="20" viewBox="0 0 20 20" fill="none" xmlns="http://www.w3.org/2000/svg">
    <path d="M15.4479 16.3061C13.9871 17.5692 12.0828 18.3333 10.0001 18.3333C5.39771 18.3333 1.66675 14.6023 1.66675 9.99996C1.66675 5.39758 5.39771 1.66663 10.0001 1.66663C14.6024 1.66663 18.3334 5.39758 18.3334 9.99996C18.3334 11.78 17.7752 13.4298 16.8244 14.7838L14.1667 9.99996H16.6667C16.6667 6.31806 13.682 3.33329 10.0001 3.33329C6.31818 3.33329 3.33341 6.31806 3.33341 9.99996C3.33341 13.6819 6.31818 16.6666 10.0001 16.6666C11.7919 16.6666 13.4186 15.9597 14.6166 14.8096L15.4479 16.3061Z" fill="#525866"/>
</svg>