<svg width="24" height="24" viewBox="0 0 24 24" fill="none" xmlns="http://www.w3.org/2000/svg">
<path d="M17.8143 6.50295L13.4162 13.4142L6.50489 17.8123C7.71025 18.9527 9.27015 19.7222 11.002 19.9381V18H13.002V19.9381C14.4627 19.756 15.8011 19.18 16.9076 18.3199L15.5375 16.9497L16.9517 15.5355L18.3218 16.9056C19.182 15.7991 19.7579 14.4607 19.9401 13H18.002V11H19.9401C19.7241 9.2682 18.9546 7.70831 17.8143 6.50295ZM17.499 6.18771C16.2937 5.04733 14.7338 4.27785 13.002 4.06189V6H11.002V4.06189C9.54124 4.24404 8.20283 4.81999 7.0963 5.68014L8.46641 7.05025L7.0522 8.46447L5.68209 7.09436C4.82194 8.20088 4.24599 9.53929 4.06384 11H6.00195V13H4.06384C4.27979 14.7318 5.04928 16.2917 6.18965 17.4971L10.5878 10.5858L17.499 6.18771ZM12.002 22C6.4791 22 2.00195 17.5228 2.00195 12C2.00195 6.47715 6.4791 2 12.002 2C17.5248 2 22.002 6.47715 22.002 12C22.002 17.5228 17.5248 22 12.002 22Z" fill="#525866"/>
</svg>
