<svg width="20" height="20" viewBox="0 0 20 20" fill="none" xmlns="http://www.w3.org/2000/svg">
    <path d="M9.16675 1.66675C13.3067 1.66675 16.6667 5.02675 16.6667 9.16675C16.6667 13.3067 13.3067 16.6667 9.16675 16.6667C5.02675 16.6667 1.66675 13.3067 1.66675 9.16675C1.66675 5.02675 5.02675 1.66675 9.16675 1.66675ZM9.16675 15.0001C12.3897 15.0001 15.0001 12.3897 15.0001 9.16675C15.0001 5.94383 12.3897 3.33341 9.16675 3.33341C5.94383 3.33341 3.33341 5.94383 3.33341 9.16675C3.33341 12.3897 5.94383 15.0001 9.16675 15.0001ZM16.2378 15.0593L18.5948 17.4163L17.4163 18.5948L15.0593 16.2378L16.2378 15.0593Z" fill="#525866"/>
</svg>