<svg width="24" height="24" viewBox="0 0 24 24" fill="none" xmlns="http://www.w3.org/2000/svg">
    <path d="M11.999 3C14.2081 3 15.999 4.79086 15.999 7C15.999 7.54443 15.8907 8.06189 15.6948 8.53339C14.0538 8.70916 12.5028 9.55852 11.4794 10.9667C10.2202 10.8034 9.14379 10.0546 8.5332 8.99871C8.19365 8.41149 7.99901 7.72998 7.99901 7C7.99901 4.79086 9.78987 3 11.999 3ZM17.7625 8.67248C17.9165 8.14111 17.999 7.57976 17.999 7C17.999 3.68629 15.3127 1 11.999 1C8.6853 0.999999 5.99901 3.68629 5.99901 7C5.99901 7.57978 6.0815 8.14116 6.2355 8.67254C5.69838 8.80488 5.17103 9.01411 4.66898 9.30397C1.79922 10.9608 0.815965 14.6303 2.47282 17.5001C4.12968 20.3699 7.79922 21.3531 10.6689 19.6963C11.171 19.4064 11.6159 19.0543 11.999 18.6553C12.3822 19.0543 12.827 19.4063 13.329 19.6962C16.1988 21.353 19.8683 20.3698 21.5252 17.5C23.182 14.6303 22.1988 10.9607 19.329 9.30389C18.827 9.01404 18.2996 8.80481 17.7625 8.67248ZM13.1533 16.9343C13.8217 15.4252 13.8617 13.6572 13.1539 12.0668C13.9249 11.0578 15.1115 10.5 16.3312 10.4992C17.0094 10.4988 17.6969 10.671 18.329 11.0359C20.2422 12.1405 20.8977 14.5869 19.7931 16.5C18.6885 18.4132 16.2422 19.0687 14.329 17.9641C13.8576 17.692 13.4637 17.3396 13.1533 16.9343ZM11.3639 12.9669C11.8522 14.1391 11.7419 15.4457 11.1327 16.5024C10.7939 17.09 10.3011 17.5992 9.66897 17.9642C7.75581 19.0688 5.30945 18.4133 4.20488 16.5001C3.10031 14.5869 3.75581 12.1406 5.66898 11.036C6.14045 10.7638 6.64269 10.5988 7.14893 10.5327C8.1217 11.866 9.63275 12.7846 11.3639 12.9669Z" fill="#525866"/>
</svg>