<svg width="20" height="20" viewBox="0 0 20 20" fill="none" xmlns="http://www.w3.org/2000/svg">
    <path d="M2.78288 14.168C2.42267 13.5441 2.15231 12.893 1.96777 12.2296C2.77817 11.8161 3.3331 10.9735 3.3331 10.0013C3.3331 9.02993 2.779 8.18785 1.96961 7.77402C2.34187 6.4316 3.04881 5.1814 4.05395 4.15952C4.81725 4.65465 5.82446 4.71396 6.66643 4.22785C7.50841 3.74173 7.96064 2.8398 7.9135 1.93121C9.30108 1.57168 10.7372 1.58455 12.0859 1.93336C12.0396 2.84123 12.4917 3.74211 13.3331 4.22785C14.1751 4.71395 15.1822 4.65465 15.9455 4.15957C16.4277 4.65106 16.8564 5.21077 17.2167 5.83469C17.5768 6.4586 17.8472 7.10972 18.0317 7.77308C17.2213 8.18657 16.6664 9.02918 16.6664 10.0013C16.6664 10.9728 17.2205 11.8148 18.0299 12.2287C17.6577 13.5711 16.9507 14.8213 15.9456 15.8432C15.1822 15.3481 14.1751 15.2888 13.3331 15.7748C12.4911 16.2609 12.0389 17.1629 12.086 18.0715C10.6985 18.431 9.26233 18.4182 7.91361 18.0693C7.95992 17.1614 7.50774 16.2606 6.66643 15.7748C5.82448 15.2888 4.81732 15.348 4.05403 15.8431C3.57181 15.3516 3.1431 14.7919 2.78288 14.168ZM7.49976 14.3315C8.40925 14.8566 9.06242 15.6868 9.37525 16.6394C9.7905 16.6789 10.2085 16.6795 10.6238 16.6408C10.9365 15.6876 11.5898 14.8568 12.4997 14.3315C13.4097 13.8061 14.4558 13.6558 15.4377 13.8615C15.6788 13.5212 15.8873 13.1588 16.0607 12.7795C15.3922 12.0323 14.9997 11.0515 14.9997 10.0013C14.9997 8.95118 15.3922 7.97051 16.0607 7.22326C15.974 7.03493 15.8782 6.8497 15.7732 6.66802C15.6683 6.48634 15.5558 6.31075 15.4361 6.14153C14.4547 6.34681 13.4092 6.1963 12.4997 5.67122C11.5902 5.14614 10.9372 4.31591 10.6242 3.3633C10.2091 3.3238 9.791 3.32323 9.37575 3.36195C9.063 4.3151 8.40966 5.14588 7.49976 5.67122C6.58983 6.19657 5.54371 6.34696 4.5619 6.1412C4.32071 6.48152 4.11219 6.84382 3.9388 7.22315C4.60734 7.97044 4.99977 8.95118 4.99977 10.0013C4.99977 11.0515 4.60736 12.0322 3.9388 12.7794C4.02556 12.9678 4.12136 13.153 4.22626 13.3347C4.33116 13.5163 4.44367 13.6919 4.56343 13.8612C5.54481 13.6559 6.59031 13.8064 7.49976 14.3315ZM9.99975 12.5013C8.61908 12.5013 7.49976 11.3821 7.49976 10.0013C7.49976 8.62068 8.61908 7.50135 9.99975 7.50135C11.3805 7.50135 12.4997 8.62068 12.4997 10.0013C12.4997 11.3821 11.3805 12.5013 9.99975 12.5013ZM9.99975 10.8347C10.46 10.8347 10.8331 10.4616 10.8331 10.0013C10.8331 9.5411 10.46 9.16801 9.99975 9.16801C9.5395 9.16801 9.16641 9.5411 9.16641 10.0013C9.16641 10.4616 9.5395 10.8347 9.99975 10.8347Z" fill="#525866"/>
</svg>