<svg width="31" height="20" viewBox="0 0 31 20" fill="none" xmlns="http://www.w3.org/2000/svg">
<rect x="0.5" y="0.5" width="30" height="19" rx="3.5" stroke="#E1E4EA"/>
<path d="M9.27699 14.196C8.9304 14.196 8.61222 14.1108 8.32244 13.9403C8.03267 13.767 7.80256 13.5369 7.6321 13.25C7.46165 12.9602 7.37642 12.642 7.37642 12.2955C7.37642 11.946 7.46165 11.6278 7.6321 11.3409C7.80256 11.0511 8.03267 10.8196 8.32244 10.6463C8.61222 10.473 8.9304 10.3864 9.27699 10.3864H10.2145V8.87784H9.27699C8.9304 8.87784 8.61222 8.79261 8.32244 8.62216C8.03267 8.4517 7.80256 8.22301 7.6321 7.93608C7.46165 7.64631 7.37642 7.3267 7.37642 6.97727C7.37642 6.62784 7.46165 6.30966 7.6321 6.02273C7.80256 5.7358 8.03267 5.5071 8.32244 5.33665C8.61222 5.16335 8.9304 5.0767 9.27699 5.0767C9.62642 5.0767 9.9446 5.16335 10.2315 5.33665C10.5213 5.5071 10.7514 5.7358 10.9219 6.02273C11.0952 6.30966 11.1818 6.62784 11.1818 6.97727V7.90625H12.6946V6.97727C12.6946 6.62784 12.7798 6.30966 12.9503 6.02273C13.1207 5.7358 13.3494 5.5071 13.6364 5.33665C13.9261 5.16335 14.2457 5.0767 14.5952 5.0767C14.9446 5.0767 15.2628 5.16335 15.5497 5.33665C15.8366 5.5071 16.0653 5.7358 16.2358 6.02273C16.4063 6.30966 16.4915 6.62784 16.4915 6.97727C16.4915 7.3267 16.4063 7.64631 16.2358 7.93608C16.0653 8.22301 15.8366 8.4517 15.5497 8.62216C15.2628 8.79261 14.9446 8.87784 14.5952 8.87784H13.6619V10.3864H14.5952C14.9446 10.3864 15.2628 10.473 15.5497 10.6463C15.8366 10.8196 16.0653 11.0511 16.2358 11.3409C16.4063 11.6278 16.4915 11.946 16.4915 12.2955C16.4915 12.642 16.4063 12.9602 16.2358 13.25C16.0653 13.5369 15.8366 13.767 15.5497 13.9403C15.2628 14.1108 14.9446 14.196 14.5952 14.196C14.2457 14.196 13.9261 14.1108 13.6364 13.9403C13.3494 13.767 13.1207 13.5369 12.9503 13.25C12.7798 12.9602 12.6946 12.642 12.6946 12.2955V11.358H11.1818V12.2955C11.1818 12.642 11.0952 12.9602 10.9219 13.25C10.7514 13.5369 10.5213 13.767 10.2315 13.9403C9.9446 14.1108 9.62642 14.196 9.27699 14.196ZM9.27699 13.2244C9.45028 13.2244 9.60653 13.1832 9.74574 13.1009C9.88778 13.0185 10.0014 12.9062 10.0866 12.7642C10.1719 12.6222 10.2145 12.4659 10.2145 12.2955V11.358H9.27699C9.10653 11.358 8.95028 11.4006 8.80824 11.4858C8.66619 11.5682 8.55256 11.6804 8.46733 11.8224C8.38494 11.9645 8.34375 12.1222 8.34375 12.2955C8.34375 12.4659 8.38494 12.6222 8.46733 12.7642C8.55256 12.9062 8.66619 13.0185 8.80824 13.1009C8.95028 13.1832 9.10653 13.2244 9.27699 13.2244ZM9.27699 7.90625H10.2145V6.97727C10.2145 6.80398 10.1719 6.64773 10.0866 6.50852C10.0014 6.36648 9.88778 6.25426 9.74574 6.17188C9.60653 6.08949 9.45028 6.0483 9.27699 6.0483C9.10653 6.0483 8.95028 6.08949 8.80824 6.17188C8.66619 6.25426 8.55256 6.36648 8.46733 6.50852C8.38494 6.64773 8.34375 6.80398 8.34375 6.97727C8.34375 7.15057 8.38494 7.30824 8.46733 7.45028C8.55256 7.58949 8.66619 7.70028 8.80824 7.78267C8.95028 7.86506 9.10653 7.90625 9.27699 7.90625ZM13.6619 7.90625H14.5952C14.7685 7.90625 14.9247 7.86506 15.0639 7.78267C15.2031 7.70028 15.3139 7.58949 15.3963 7.45028C15.4815 7.30824 15.5241 7.15057 15.5241 6.97727C15.5241 6.80398 15.4815 6.64773 15.3963 6.50852C15.3139 6.36648 15.2031 6.25426 15.0639 6.17188C14.9247 6.08949 14.7685 6.0483 14.5952 6.0483C14.4219 6.0483 14.2642 6.08949 14.1222 6.17188C13.9801 6.25426 13.8679 6.36648 13.7855 6.50852C13.7031 6.64773 13.6619 6.80398 13.6619 6.97727V7.90625ZM14.5952 13.2244C14.7685 13.2244 14.9247 13.1832 15.0639 13.1009C15.2031 13.0185 15.3139 12.9062 15.3963 12.7642C15.4815 12.6222 15.5241 12.4659 15.5241 12.2955C15.5241 12.1222 15.4815 11.9645 15.3963 11.8224C15.3139 11.6804 15.2031 11.5682 15.0639 11.4858C14.9247 11.4006 14.7685 11.358 14.5952 11.358H13.6619V12.2955C13.6619 12.4659 13.7031 12.6222 13.7855 12.7642C13.8679 12.9062 13.9801 13.0185 14.1222 13.1009C14.2642 13.1832 14.4219 13.2244 14.5952 13.2244ZM11.1818 10.3864H12.6946V8.87784H11.1818V10.3864ZM22.5017 5.27273V14H21.1806V6.59375H21.1295L19.0414 7.95739V6.69602L21.219 5.27273H22.5017Z" fill="#99A0AE"/>
</svg>
