<svg width="40" height="40" viewBox="0 0 40 40" fill="none" xmlns="http://www.w3.org/2000/svg">
    <rect width="40" height="40" rx="10" fill="#FFF1EB"/>
    <path d="M20.8659 11.0002L30.3922 27.5002C30.6684 27.9785 30.5045 28.5901 30.0262 28.8662C29.8742 28.954 29.7017 29.0002 29.5262 29.0002H10.4736C9.92135 29.0002 9.47363 28.5525 9.47363 28.0002C9.47363 27.8246 9.51984 27.6522 9.60761 27.5002L19.1339 11.0002C19.41 10.5219 20.0216 10.358 20.4999 10.6341C20.6519 10.7219 20.7782 10.8482 20.8659 11.0002ZM18.9999 24.0002V26.0002H20.9999V24.0002H18.9999ZM18.9999 17.0002V22.0002H20.9999V17.0002H18.9999Z" fill="#FF8447"/>
</svg>