<svg width="20" height="20" viewBox="0 0 20 20" fill="none" xmlns="http://www.w3.org/2000/svg">
    <path d="M6.04516 15.412L6.6491 15.7641C7.65806 16.3525 8.80474 16.6666 10.0013 16.6666C13.6832 16.6666 16.668 13.6819 16.668 9.99996C16.668 6.31806 13.6832 3.33329 10.0013 3.33329C6.3194 3.33329 3.33464 6.31806 3.33464 9.99996C3.33464 11.1969 3.64899 12.344 4.2377 13.3531L4.58969 13.9565L4.04511 15.9578L6.04516 15.412ZM1.67145 18.3333L2.79809 14.1929C2.0796 12.9613 1.66797 11.5287 1.66797 9.99996C1.66797 5.39758 5.39893 1.66663 10.0013 1.66663C14.6037 1.66663 18.3347 5.39758 18.3347 9.99996C18.3347 14.6023 14.6037 18.3333 10.0013 18.3333C8.47307 18.3333 7.04091 17.922 5.80954 17.2039L1.67145 18.3333ZM6.99409 6.09023C7.10565 6.08239 7.21759 6.08119 7.32931 6.08664C7.37444 6.08961 7.41936 6.09483 7.46431 6.10002C7.59703 6.11534 7.74297 6.19617 7.79204 6.30741C8.04064 6.87109 8.28185 7.438 8.51565 8.00798C8.56724 8.13381 8.53615 8.2969 8.43799 8.45471C8.38815 8.53563 8.30989 8.64913 8.21922 8.76521C8.12498 8.88579 7.92214 9.10754 7.92214 9.10754C7.92214 9.10754 7.83997 9.20604 7.87094 9.32863C7.88301 9.37496 7.92149 9.44246 7.95639 9.49921C7.97571 9.53063 7.99365 9.55871 8.00529 9.57813C8.21856 9.93421 8.50524 10.2952 8.8554 10.6346C8.95574 10.7319 9.05307 10.8311 9.15774 10.9233C9.54799 11.2674 9.98949 11.5485 10.4663 11.7568L10.4706 11.7587C10.541 11.789 10.5772 11.8056 10.6802 11.8494C10.7322 11.8714 10.7854 11.8904 10.84 11.9048C10.8597 11.91 10.88 11.9129 10.9003 11.9143C11.0351 11.9224 11.113 11.836 11.1462 11.7962C11.7492 11.0658 11.8043 11.0181 11.8085 11.0185V11.0198C11.8877 10.9363 12.0123 10.9073 12.1235 10.9141C12.1742 10.9172 12.2247 10.927 12.2709 10.948C12.7141 11.1502 13.4387 11.4655 13.4387 11.4655L13.9232 11.6834C14.0044 11.7225 14.0785 11.8148 14.0821 11.9045C14.0842 11.9602 14.0902 12.0502 14.0703 12.2149C14.0442 12.4305 13.9787 12.69 13.9135 12.826C13.8677 12.9215 13.8083 13.0061 13.7393 13.0778C13.6457 13.175 13.5762 13.234 13.4637 13.3178C13.3952 13.3688 13.3597 13.3928 13.3597 13.3928C13.244 13.4658 13.1787 13.5023 13.0408 13.5757C12.8263 13.69 12.5893 13.7556 12.3466 13.7681C12.1918 13.776 12.0375 13.7872 11.8829 13.7789C11.8761 13.7785 11.4094 13.7068 11.4094 13.7068C10.2245 13.3951 9.12865 12.8113 8.2091 12.0016C8.02109 11.8361 7.84674 11.657 7.66877 11.4799C6.92789 10.7423 6.367 9.94696 6.02689 9.19463C5.85918 8.82363 5.75298 8.42629 5.7513 8.01744C5.74823 7.51167 5.91381 7.01929 6.22189 6.61818C6.28263 6.5391 6.34027 6.45708 6.43973 6.36318C6.54505 6.26372 6.61209 6.21033 6.68429 6.17338C6.78054 6.12414 6.88626 6.09781 6.99409 6.09023Z" fill="#0369a1"/>
</svg>