<svg width="20" height="20" viewBox="0 0 20 20" fill="none" xmlns="http://www.w3.org/2000/svg">
    <path d="M4.55149 3.69381C6.01232 2.43069 7.9166 1.66663 9.99935 1.66663C14.6017 1.66663 18.3327 5.39758 18.3327 9.99996C18.3327 11.78 17.7745 13.4298 16.8237 14.7838L14.166 9.99996H16.666C16.666 6.31806 13.6813 3.33329 9.99935 3.33329C8.20753 3.33329 6.58082 4.04018 5.38287 5.19031L4.55149 3.69381ZM15.4472 16.3061C13.9863 17.5692 12.0821 18.3333 9.99935 18.3333C5.39697 18.3333 1.66602 14.6023 1.66602 9.99996C1.66602 8.21984 2.22417 6.57009 3.17502 5.21616L5.83268 9.99996H3.33268C3.33268 13.6819 6.31745 16.6666 9.99935 16.6666C11.7912 16.6666 13.4179 15.9597 14.6159 14.8096L15.4472 16.3061Z" fill="white"/>
</svg>