<svg width="20" height="20" viewBox="0 0 20 20" fill="none" xmlns="http://www.w3.org/2000/svg">
    <path d="M16.3396 5.82894C16.2761 5.58071 16.0965 5.39343 15.8908 5.33565C15.5254 5.23377 13.7513 4.99992 10.0013 4.99992C6.2513 4.99992 4.47759 5.23386 4.11069 5.33594C3.90695 5.39261 3.7274 5.57986 3.66307 5.82894C3.5724 6.18261 3.33464 7.66321 3.33464 9.99992C3.33464 12.3366 3.5724 13.8173 3.66332 14.1719C3.72654 14.4192 3.90612 14.6064 4.11091 14.6639C4.47759 14.766 6.2513 14.9999 10.0013 14.9999C13.7513 14.9999 15.5254 14.7661 15.8919 14.6639C16.0957 14.6073 16.2752 14.42 16.3396 14.1709C16.4302 13.8173 16.668 12.3333 16.668 9.99992C16.668 7.66659 16.4302 6.18261 16.3396 5.82894ZM17.954 5.41507C18.3347 6.89992 18.3347 9.99992 18.3347 9.99992C18.3347 9.99992 18.3347 13.0999 17.954 14.5848C17.7419 15.406 17.123 16.0514 16.3385 16.2696C14.9147 16.6666 10.0013 16.6666 10.0013 16.6666C10.0013 16.6666 5.09079 16.6666 3.66413 16.2696C2.8767 16.0484 2.25781 15.4029 2.0486 14.5848C1.66797 13.0999 1.66797 9.99992 1.66797 9.99992C1.66797 9.99992 1.66797 6.89992 2.0486 5.41507C2.26071 4.59386 2.87961 3.9484 3.66413 3.73022C5.09079 3.33325 10.0013 3.33325 10.0013 3.33325C10.0013 3.33325 14.9147 3.33325 16.3385 3.73022C17.1259 3.95144 17.7448 4.59689 17.954 5.41507ZM8.33465 12.9166V7.08325L13.3347 9.99992L8.33465 12.9166Z" fill="#0369a1"/>
</svg>