<svg width="20" height="20" viewBox="0 0 20 20" fill="none" xmlns="http://www.w3.org/2000/svg">
    <path d="M16.3391 5.82894C16.2756 5.58071 16.096 5.39343 15.8903 5.33565C15.5249 5.23377 13.7508 4.99992 10.0008 4.99992C6.25081 4.99992 4.4771 5.23386 4.11021 5.33594C3.90646 5.39261 3.72691 5.57986 3.66258 5.82894C3.57191 6.18261 3.33415 7.66321 3.33415 9.99992C3.33415 12.3366 3.57191 13.8173 3.66283 14.1719C3.72605 14.4192 3.90563 14.6064 4.11042 14.6639C4.4771 14.766 6.25081 14.9999 10.0008 14.9999C13.7508 14.9999 15.5249 14.7661 15.8914 14.6639C16.0952 14.6073 16.2747 14.42 16.3391 14.1709C16.4297 13.8173 16.6675 12.3333 16.6675 9.99992C16.6675 7.66659 16.4297 6.18261 16.3391 5.82894ZM17.9535 5.41507C18.3342 6.89992 18.3342 9.99992 18.3342 9.99992C18.3342 9.99992 18.3342 13.0999 17.9535 14.5848C17.7414 15.406 17.1225 16.0514 16.338 16.2696C14.9142 16.6666 10.0008 16.6666 10.0008 16.6666C10.0008 16.6666 5.09031 16.6666 3.66364 16.2696C2.87621 16.0484 2.25732 15.4029 2.04811 14.5848C1.66748 13.0999 1.66748 9.99992 1.66748 9.99992C1.66748 9.99992 1.66748 6.89992 2.04811 5.41507C2.26022 4.59386 2.87912 3.9484 3.66364 3.73022C5.09031 3.33325 10.0008 3.33325 10.0008 3.33325C10.0008 3.33325 14.9142 3.33325 16.338 3.73022C17.1254 3.95144 17.7443 4.59689 17.9535 5.41507ZM8.33417 12.9166V7.08325L13.3342 9.99992L8.33417 12.9166Z" fill="#525866"/>
</svg>